<svg width="124" height="80" viewBox="0 0 124 80" fill="none" xmlns="http://www.w3.org/2000/svg">
<path d="M58.232 24.48C60.1093 23.904 61.048 23.1573 61.048 22.24C61.048 22.048 60.9627 21.8133 60.792 21.536C60.6427 21.2587 60.344 21.12 59.896 21.12C59.5973 21.12 59.2987 21.2587 59 21.536C58.744 20.8533 58.36 20.512 57.848 20.512C57.528 20.512 57.2507 20.6293 57.016 20.864C56.7813 21.0987 56.664 21.376 56.664 21.696C56.664 22.1013 56.8027 22.592 57.08 23.168C57.3573 23.7227 57.688 24.1493 58.072 24.448L58.232 24.48ZM57.688 26.496C57.9013 26.496 58.0827 26.4213 58.232 26.272C58.3813 26.1227 58.456 25.952 58.456 25.76C58.456 25.2693 58.2 25.024 57.688 25.024C57.2187 25.024 56.984 25.2693 56.984 25.76C56.984 25.952 57.048 26.1227 57.176 26.272C57.304 26.4213 57.4747 26.496 57.688 26.496ZM57.368 28.512C57.88 28.512 58.136 28.2667 58.136 27.776C58.136 27.2853 57.88 27.04 57.368 27.04C57.176 27.04 57.0053 27.1147 56.856 27.264C56.728 27.392 56.664 27.5627 56.664 27.776C56.664 27.9893 56.728 28.1707 56.856 28.32C57.0053 28.448 57.176 28.512 57.368 28.512ZM57.272 30.56C57.4853 30.56 57.656 30.4853 57.784 30.336C57.9333 30.1867 58.008 30.016 58.008 29.824C58.008 29.3333 57.7627 29.088 57.272 29.088C57.08 29.088 56.9093 29.152 56.76 29.28C56.6107 29.408 56.536 29.5893 56.536 29.824C56.536 30.016 56.6107 30.1867 56.76 30.336C56.9093 30.4853 57.08 30.56 57.272 30.56ZM57.272 32.608C57.784 32.608 58.04 32.3627 58.04 31.872C58.04 31.36 57.784 31.104 57.272 31.104C57.08 31.104 56.9093 31.1787 56.76 31.328C56.632 31.4773 56.568 31.6587 56.568 31.872C56.568 32.0853 56.632 32.2667 56.76 32.416C56.9093 32.544 57.08 32.608 57.272 32.608ZM57.592 34.56C57.8053 34.56 57.976 34.4853 58.104 34.336C58.2533 34.1867 58.328 34.016 58.328 33.824C58.328 33.312 58.0827 33.056 57.592 33.056C57.1013 33.056 56.856 33.312 56.856 33.824C56.856 34.016 56.92 34.1867 57.048 34.336C57.1973 34.4853 57.3787 34.56 57.592 34.56ZM72.568 51.008L71.832 50.816L72.888 49.888L71.864 48.32L72.696 48.416L73.688 49.984L72.568 51.008ZM77.72 51.616C76.184 51.616 74.68 51.456 73.208 51.136L74.424 50.048L73.368 48.512C74.1147 48.5973 74.8507 48.64 75.576 48.64C76.5787 48.64 77.6453 48.544 78.776 48.352C83.0853 47.712 85.24 45.92 85.24 42.976C85.24 42.7627 85.176 42.5173 85.048 42.24C84.9413 42.1333 84.888 41.984 84.888 41.792C84.888 41.728 84.8987 41.6853 84.92 41.664C84.9627 41.6427 84.9947 41.6213 85.016 41.6C85.2933 41.6 85.752 42.0373 86.392 42.912C87.2027 43.8507 87.64 44.896 87.704 46.048C87.704 46.944 87.4373 47.7653 86.904 48.512C85.8373 49.92 84.1307 50.8267 81.784 51.232C80.7173 51.424 79.3627 51.552 77.72 51.616ZM58.488 37.088L57.496 36.608L57.24 35.936L58.296 36.448L58.904 35.552C58.9467 35.808 59 36.0427 59.064 36.256L58.488 37.088ZM71.192 50.656C64.728 48.288 60.3013 43.904 57.912 37.504L58.68 37.92L59.256 37.088L59.48 37.792C60.4187 40.2667 62.0613 42.5067 64.408 44.512C66.7547 46.5173 68.9947 47.7333 71.128 48.16L72.184 49.76L71.192 50.656ZM62.808 15.52H63.32V18.08H62.616C62.04 19.0187 61.528 19.9573 61.08 20.896C61.592 21.1733 61.848 21.632 61.848 22.272C61.848 23.2107 61.08 24.0107 59.544 24.672C58.8187 27.04 58.456 29.4187 58.456 31.808C58.456 32.704 58.552 33.6747 58.744 34.72L58.072 35.648L56.92 35.072C56.3013 33.4507 55.992 31.424 55.992 28.992C55.992 27.2853 56.216 25.4933 56.664 23.616C56.28 22.784 56.088 22.1227 56.088 21.632C56.088 21.0987 56.2587 20.6613 56.6 20.32C56.8773 20.064 57.2933 19.936 57.848 19.936C58.616 18.208 59.16 16.736 59.48 15.52C59.3093 13.2587 58.0507 12.128 55.704 12.128C54.936 12.128 53.816 12.4587 52.344 13.12L52.088 13.024C52.088 12.5333 52.6427 11.9573 53.752 11.296C54.84 10.6347 55.9813 10.304 57.176 10.304C60.632 10.304 62.5093 12.0427 62.808 15.52ZM66.3355 18.08V25.056C67.7862 23.1147 69.5888 21.792 71.7435 21.088C72.6182 21.9413 73.3008 23.04 73.7915 24.384C72.8102 26.7093 72.3195 29.1093 72.3195 31.584C72.3195 33.4827 72.6395 35.1147 73.2795 36.48C73.4928 36.9067 73.6422 37.344 73.7275 37.792V37.856C73.7275 37.9627 73.6848 38.0373 73.5995 38.08C73.3435 38.08 72.8422 37.376 72.0955 35.968C70.9435 33.8133 70.3675 31.7013 70.3675 29.632C70.3675 28.5867 70.4955 27.2427 70.7515 25.6C69.2155 26.4107 67.7222 28.1067 66.2715 30.688C64.8848 29.6 64.0635 28.5227 63.8075 27.456V18.08H62.3675V15.52H74.8795V18.08H66.3355ZM78.2105 15.52H75.6825V14.464C74.3385 13.248 73.6665 11.7653 73.6665 10.016C73.6665 7.328 74.8718 5.088 77.2825 3.296C79.7145 1.48267 82.8398 0.576 86.6585 0.576C87.8105 0.576 88.9518 0.672 90.0825 0.863998C96.2265 1.888 101.08 5.36533 104.643 11.296C104.813 11.5307 104.952 11.7867 105.059 12.064C105.059 12.1493 105.037 12.2133 104.995 12.256C104.504 12.0427 103.907 11.424 103.203 10.4L102.787 9.856C100.653 7.68 98.1465 6.08 95.2665 5.056C92.9838 4.24533 90.6478 3.84 88.2585 3.84C84.5252 3.84 81.5172 4.72533 79.2345 6.496C77.9545 7.49866 77.0692 8.768 76.5785 10.304C76.4292 10.816 76.3545 11.3173 76.3545 11.808C76.3545 13.024 76.9732 14.1227 78.2105 15.104V15.52ZM78.2105 29.664H75.6825V29.12H78.2105V29.664ZM77.0905 41.824C76.7492 41.824 76.4398 41.696 76.1625 41.44C75.8852 41.2053 75.7252 40.896 75.6825 40.512V30.016H78.2105V36.064C78.3812 35.9787 78.5732 35.936 78.7865 35.936C79.2132 35.936 79.5545 36.0747 79.8105 36.352C80.0878 36.6293 80.2265 36.96 80.2265 37.344C80.2265 37.728 80.0878 38.0587 79.8105 38.336C79.5332 38.6133 79.1918 38.752 78.7865 38.752C78.4025 38.752 78.0825 38.6347 77.8265 38.4C77.5705 38.1653 77.4105 37.856 77.3465 37.472V35.168C77.1545 35.2107 76.9945 35.232 76.8665 35.232C76.7385 35.232 76.6212 35.2107 76.5145 35.168V39.072C76.7065 39.008 76.8985 38.976 77.0905 38.976C77.5172 38.976 77.8692 39.1147 78.1465 39.392C78.4238 39.6907 78.5625 40.032 78.5625 40.416C78.5625 40.8 78.4132 41.1307 78.1145 41.408C77.8158 41.6853 77.4745 41.824 77.0905 41.824ZM76.9305 33.152C77.5278 32.7467 77.8265 32.3733 77.8265 32.032C77.8265 31.9253 77.7838 31.8293 77.6985 31.744C77.6132 31.6373 77.5065 31.584 77.3785 31.584C77.2292 31.584 77.0798 31.6907 76.9305 31.904C76.7812 31.6907 76.6212 31.584 76.4505 31.584C76.3225 31.584 76.2158 31.6373 76.1305 31.744C76.0452 31.8293 76.0025 31.9253 76.0025 32.032C76.0025 32.2453 76.0985 32.448 76.2905 32.64C76.5038 32.8533 76.7172 33.024 76.9305 33.152ZM78.2105 23.552V28.736H75.6825V23.552H78.2105ZM74.2425 15.52H79.6505V18.08H78.2105V22.432H75.6825V18.08H74.2425V15.52ZM78.2105 23.264H75.6825V22.72H78.2105V23.264ZM76.9305 26.848C77.5278 26.4427 77.8265 26.08 77.8265 25.76C77.8265 25.632 77.7838 25.5253 77.6985 25.44C77.6132 25.3333 77.5065 25.28 77.3785 25.28C77.2292 25.28 77.0798 25.3867 76.9305 25.6C76.7812 25.3867 76.6212 25.28 76.4505 25.28C76.3225 25.28 76.2158 25.3333 76.1305 25.44C76.0452 25.5253 76.0025 25.632 76.0025 25.76C76.0025 25.952 76.0985 26.144 76.2905 26.336C76.5038 26.5493 76.7172 26.72 76.9305 26.848ZM91.7278 18.08V36C91.0878 35.744 90.5011 35.296 89.9678 34.656C89.4558 33.9947 89.1998 33.376 89.1998 32.8V28.864C89.0504 28.16 88.6238 27.296 87.9198 26.272C87.2158 25.248 86.7038 24.7253 86.3838 24.704C85.7651 24.704 84.9224 25.216 83.8558 26.24C85.2211 27.1147 85.9038 28.288 85.9038 29.76C85.9038 30.5493 85.5624 31.0933 84.8798 31.392C84.6664 31.4773 84.4531 31.52 84.2398 31.52C83.0664 31.52 82.0851 31.0507 81.2958 30.112C80.5278 29.1733 80.1438 28.0107 80.1438 26.624C80.1438 25.3013 80.6878 24.1067 81.7758 23.04C82.8851 21.952 83.8344 21.408 84.6238 21.408C86.1384 21.408 87.6638 22.816 89.1998 25.632V18.08H79.0237V15.52H93.1678V18.08H91.7278ZM95.7878 28.096C96.7904 28.096 97.7078 27.808 98.5398 27.232C98.6678 27.104 98.8171 27.0293 98.9878 27.008C99.6704 27.008 100.428 28.1173 101.26 30.336V22.432C97.9318 24.7573 96.1078 26.6453 95.7878 28.096ZM103.788 18.336C108.353 19.7867 110.636 22.0907 110.636 25.248C110.636 26.6133 110.305 27.7333 109.644 28.608C109.004 29.4827 108.086 29.92 106.892 29.92C105.462 29.92 104.705 29.0987 104.62 27.456C104.641 26.752 104.854 26.1547 105.26 25.664C105.665 25.152 106.081 24.896 106.508 24.896C107.361 24.896 107.969 25.4507 108.332 26.56C108.545 26.3893 108.673 26.1547 108.716 25.856C108.716 25.152 108.214 24.384 107.212 23.552C106.23 22.6987 105.089 22.1973 103.788 22.048V36C103.297 35.808 102.753 35.36 102.156 34.656C101.558 33.952 101.26 33.3653 101.26 32.896V32.608C100.556 31.2853 100.044 30.624 99.7238 30.624C99.4678 30.624 99.1051 30.7627 98.6358 31.04C98.1878 31.296 97.7611 31.424 97.3558 31.424C95.8198 31.424 94.6571 30.176 93.8678 27.68C93.7184 27.2107 93.6438 26.816 93.6438 26.496C93.6438 24.0213 96.1824 21.3227 101.26 18.4V18.08H92.5237V15.52H111.788V18.08H103.788V18.336Z" fill="white"/>
<path d="M94.28 49.2H92.7V48.54C91.86 47.78 91.44 46.8533 91.44 45.76C91.44 44.08 92.1933 42.68 93.7 41.56C95.22 40.4267 97.1733 39.86 99.56 39.86C100.28 39.86 100.993 39.92 101.7 40.04C105.54 40.68 108.573 42.8533 110.8 46.56C110.907 46.7067 110.993 46.8667 111.06 47.04C111.06 47.0933 111.047 47.1333 111.02 47.16C110.713 47.0267 110.34 46.64 109.9 46L109.64 45.66C108.307 44.3 106.74 43.3 104.94 42.66C103.513 42.1533 102.053 41.9 100.56 41.9C98.2267 41.9 96.3467 42.4533 94.92 43.56C94.12 44.1867 93.5667 44.98 93.26 45.94C93.1667 46.26 93.12 46.5733 93.12 46.88C93.12 47.64 93.5067 48.3267 94.28 48.94V49.2ZM94.28 58.04H92.7V57.7H94.28V58.04ZM93.58 65.64C93.3667 65.64 93.1733 65.56 93 65.4C92.8267 65.2533 92.7267 65.06 92.7 64.82V58.26H94.28V62.04C94.3867 61.9867 94.5067 61.96 94.64 61.96C94.9067 61.96 95.12 62.0467 95.28 62.22C95.4533 62.3933 95.54 62.6 95.54 62.84C95.54 63.08 95.4533 63.2867 95.28 63.46C95.1067 63.6333 94.8933 63.72 94.64 63.72C94.4 63.72 94.2 63.6467 94.04 63.5C93.88 63.3533 93.78 63.16 93.74 62.92V61.48C93.62 61.5067 93.52 61.52 93.44 61.52C93.36 61.52 93.2867 61.5067 93.22 61.48V63.92C93.34 63.88 93.46 63.86 93.58 63.86C93.8467 63.86 94.0667 63.9467 94.24 64.12C94.4133 64.3067 94.5 64.52 94.5 64.76C94.5 65 94.4067 65.2067 94.22 65.38C94.0333 65.5533 93.82 65.64 93.58 65.64ZM93.48 60.22C93.8533 59.9667 94.04 59.7333 94.04 59.52C94.04 59.4533 94.0133 59.3933 93.96 59.34C93.9067 59.2733 93.84 59.24 93.76 59.24C93.6667 59.24 93.5733 59.3067 93.48 59.44C93.3867 59.3067 93.2867 59.24 93.18 59.24C93.1 59.24 93.0333 59.2733 92.98 59.34C92.9267 59.3933 92.9 59.4533 92.9 59.52C92.9 59.6533 92.96 59.78 93.08 59.9C93.2133 60.0333 93.3467 60.14 93.48 60.22ZM94.28 54.22V57.46H92.7V54.22H94.28ZM91.8 49.2H95.18V50.8H94.28V53.52H92.7V50.8H91.8V49.2ZM94.28 54.04H92.7V53.7H94.28V54.04ZM93.48 56.28C93.8533 56.0267 94.04 55.8 94.04 55.6C94.04 55.52 94.0133 55.4533 93.96 55.4C93.9067 55.3333 93.84 55.3 93.76 55.3C93.6667 55.3 93.5733 55.3667 93.48 55.5C93.3867 55.3667 93.2867 55.3 93.18 55.3C93.1 55.3 93.0333 55.3333 92.98 55.4C92.9267 55.4533 92.9 55.52 92.9 55.6C92.9 55.72 92.96 55.84 93.08 55.96C93.2133 56.0933 93.3467 56.2 93.48 56.28ZM97.2683 50.8H94.7883V49.2H103.848V50.8H100.188C100.548 51.08 100.948 51.4333 101.388 51.86C102.482 52.94 103.028 54.26 103.028 55.82C103.028 57.3667 102.122 58.46 100.308 59.1C98.4949 59.74 97.5883 60.3467 97.5883 60.92C97.5883 61.8267 98.3816 62.7933 99.9683 63.82C101.555 64.86 103.415 65.38 105.548 65.38C106.722 65.38 107.462 64.98 107.768 64.18C107.782 64.1133 107.788 64.0267 107.788 63.92V63.74C107.642 63.54 107.568 63.3933 107.568 63.3C107.568 63.2467 107.595 63.2133 107.648 63.2C107.715 63.2 107.808 63.24 107.928 63.32C108.795 63.9467 109.228 64.66 109.228 65.46C109.228 65.8333 109.102 66.1533 108.848 66.42C108.608 66.7 108.302 66.88 107.928 66.96C107.555 67.0533 107.008 67.1133 106.288 67.14C105.195 67.14 103.895 66.8867 102.388 66.38C100.882 65.8733 99.5616 65.1733 98.4283 64.28C97.3083 63.4 96.4216 62.4733 95.7683 61.5C95.4216 60.9933 95.2483 60.4733 95.2483 59.94C95.2483 59.0467 96.3549 58.2 98.5683 57.4C100.782 56.6 101.888 55.66 101.888 54.58C101.888 53.9533 101.228 53.12 99.9083 52.08C98.7483 52.5333 97.8283 53.1867 97.1483 54.04C97.2949 54.1467 97.4549 54.2267 97.6283 54.28C97.8549 53.84 98.2683 53.4867 98.8683 53.22C99.1483 53.22 99.5283 53.74 100.008 54.78C100.088 55.0333 100.128 55.26 100.128 55.46C100.128 55.7667 99.9483 56.0267 99.5883 56.24C99.3883 56.32 99.2016 56.36 99.0283 56.36C98.3349 56.24 97.7483 55.9 97.2683 55.34C96.3616 54.18 95.9083 53.2333 95.9083 52.5C95.9083 52.0867 96.2883 51.5733 97.0483 50.96C97.1283 50.9067 97.2016 50.8533 97.2683 50.8ZM111.921 50.8V62C111.587 61.92 111.241 61.6467 110.881 61.18C110.521 60.7133 110.341 60.28 110.341 59.88V56.88C110.141 56.3067 109.881 55.8133 109.561 55.4C109.481 56.0267 109.287 56.64 108.981 57.24C108.354 58.44 107.607 59.04 106.741 59.04C105.634 59.04 104.674 58.1733 103.861 56.44C103.727 56.1333 103.661 55.92 103.661 55.8C103.687 55.72 103.707 55.68 103.721 55.68C103.801 55.68 103.961 55.8067 104.201 56.06C104.521 56.3267 104.887 56.46 105.301 56.46C106.061 56.46 106.581 56.04 106.861 55.2C106.941 54.9733 106.981 54.7267 106.981 54.46C106.981 53.86 106.754 53.18 106.301 52.42C105.847 51.6467 105.621 51.1067 105.621 50.8H103.441V49.2H112.821V50.8H111.921ZM110.341 50.8H107.881C107.654 51.08 107.541 51.4467 107.541 51.9C107.541 52.2067 107.627 52.6867 107.801 53.34C107.987 53.9933 108.087 54.42 108.101 54.62C108.207 54.2867 108.294 53.92 108.361 53.52C108.374 53.4 108.427 53.34 108.521 53.34C109.014 53.3667 109.621 53.9667 110.341 55.14V50.8ZM114.905 58.04H113.325V57.7H114.905V58.04ZM114.205 65.64C113.992 65.64 113.798 65.56 113.625 65.4C113.452 65.2533 113.352 65.06 113.325 64.82V58.26H114.905V62.04C115.012 61.9867 115.132 61.96 115.265 61.96C115.532 61.96 115.745 62.0467 115.905 62.22C116.078 62.3933 116.165 62.6 116.165 62.84C116.165 63.08 116.078 63.2867 115.905 63.46C115.732 63.6333 115.518 63.72 115.265 63.72C115.025 63.72 114.825 63.6467 114.665 63.5C114.505 63.3533 114.405 63.16 114.365 62.92V61.48C114.245 61.5067 114.145 61.52 114.065 61.52C113.985 61.52 113.912 61.5067 113.845 61.48V63.92C113.965 63.88 114.085 63.86 114.205 63.86C114.472 63.86 114.692 63.9467 114.865 64.12C115.038 64.3067 115.125 64.52 115.125 64.76C115.125 65 115.032 65.2067 114.845 65.38C114.658 65.5533 114.445 65.64 114.205 65.64ZM114.105 56.28C114.478 56.0267 114.665 55.8 114.665 55.6C114.665 55.52 114.638 55.4533 114.585 55.4C114.532 55.3333 114.465 55.3 114.385 55.3C114.292 55.3 114.198 55.3667 114.105 55.5C114.012 55.3667 113.912 55.3 113.805 55.3C113.725 55.3 113.658 55.3333 113.605 55.4C113.552 55.4533 113.525 55.52 113.525 55.6C113.525 55.72 113.585 55.84 113.705 55.96C113.838 56.0933 113.972 56.2 114.105 56.28ZM114.105 60.22C114.478 59.9667 114.665 59.7333 114.665 59.52C114.665 59.4533 114.638 59.3933 114.585 59.34C114.532 59.2733 114.465 59.24 114.385 59.24C114.292 59.24 114.198 59.3067 114.105 59.44C114.012 59.3067 113.912 59.24 113.805 59.24C113.725 59.24 113.658 59.2733 113.605 59.34C113.552 59.3933 113.525 59.4533 113.525 59.52C113.525 59.6533 113.585 59.78 113.705 59.9C113.838 60.0333 113.972 60.14 114.105 60.22ZM114.905 54.22V57.46H113.325V54.22H114.905ZM112.425 49.2H115.805V50.8H114.905V53.52H113.325V50.8H112.425V49.2ZM114.905 54.04H113.325V53.7H114.905V54.04ZM117.453 57.06C118.08 57.06 118.653 56.88 119.173 56.52C119.253 56.44 119.347 56.3933 119.453 56.38C119.88 56.38 120.353 57.0733 120.873 58.46V53.52C118.793 54.9733 117.653 56.1533 117.453 57.06ZM122.453 62C122.147 61.88 121.807 61.6 121.433 61.16C121.06 60.72 120.873 60.3533 120.873 60.06V59.88C120.433 59.0533 120.113 58.64 119.913 58.64C119.753 58.64 119.527 58.7267 119.233 58.9C118.953 59.06 118.687 59.14 118.433 59.14C117.473 59.14 116.747 58.36 116.253 56.8C116.16 56.5067 116.113 56.26 116.113 56.06C116.113 54.5133 117.7 52.8267 120.873 51V50.8H115.413V49.2H123.353V50.8H122.453V62Z" fill="white"/>
<g clip-path="url(#clip0_11_9)">
<path d="M30.1639 59.9092C30.1639 58.4607 28.9895 57.2863 27.5409 57.2863L2.6228 57.2863C1.17425 57.2863 -0.000148825 58.4607 -0.000148888 59.9092L-0.000149375 71.0567C-0.000149438 72.5053 1.17425 73.6797 2.6228 73.6797L27.5409 73.6797C28.9895 73.6797 30.1639 72.5053 30.1639 71.0567L30.1639 59.9092Z" fill="white"/>
<path d="M23.6064 38.2699C23.6064 36.8213 22.4321 35.6469 20.9835 35.6469L2.62282 35.6469C1.17427 35.6469 -0.000129751 36.8213 -0.000129814 38.2699L-0.000130302 49.4174C-0.000130365 50.8659 1.17427 52.0403 2.62282 52.0403L20.9836 52.0403C22.4322 52.0403 23.6066 50.8659 23.6066 49.4174L23.6064 38.2699Z" fill="white"/>
<path d="M13.7705 16.6306C13.7705 15.182 12.5961 14.0076 11.1475 14.0076L2.62294 14.0076C1.17439 14.0076 -8.6344e-06 15.182 -8.69772e-06 16.6306L-9.185e-06 27.7781C-9.24831e-06 29.2266 1.17439 30.401 2.62294 30.401L11.1475 30.401C12.5961 30.401 13.7705 29.2266 13.7705 27.7781L13.7705 16.6306Z" fill="white"/>
<path d="M43.7278 4.40163L34.9598 1.68103C23.2201 39.5133 43.133 60.7874 58.047 70.8798L54.4352 78.3191L80 76.483L65.6302 55.2607L62.1011 62.5303C47.7199 52.4267 34.3736 34.5388 43.7278 4.40163Z" fill="white"/>
</g>
<defs>
<clipPath id="clip0_11_9">
<rect width="80" height="80" fill="white" transform="translate(80) rotate(90)"/>
</clipPath>
</defs>
</svg>
